<svg xmlns="http://www.w3.org/2000/svg" xmlns:xlink="http://www.w3.org/1999/xlink" width="192" zoomAndPan="magnify" viewBox="0 0 144 143.999998" height="192" preserveAspectRatio="xMidYMid meet" version="1.0"><defs><path d="M 30.480469 113.792969 L 113.519531 113.792969 L 113.519531 139.324219 L 30.480469 139.324219 Z M 30.480469 113.792969 " clip-rule="nonzero"/><path d="M 85.875 85.996094 L 113.519531 85.996094 L 113.519531 115.09375 L 85.875 115.09375 Z M 85.875 85.996094 " clip-rule="nonzero"/><path d="M 30.480469 85.996094 L 58.160156 85.996094 L 58.160156 115.09375 L 30.480469 115.09375 Z M 30.480469 85.996094 " clip-rule="nonzero"/><path d="M 86.722656 41.699219 L 113.519531 41.699219 L 113.519531 73.609375 L 86.722656 73.609375 Z M 86.722656 41.699219 " clip-rule="nonzero"/><path d="M 58.886719 4.675781 L 85.113281 4.675781 L 85.113281 57.65625 L 58.886719 57.65625 Z M 58.886719 4.675781 " clip-rule="nonzero"/><path d="M 30.480469 4.675781 L 60.835938 4.675781 L 60.835938 30.320312 L 30.480469 30.320312 Z M 30.480469 4.675781 " clip-rule="nonzero"/></defs><g clip-path="url(#7e6aed517d)"><path fill="#ffffff" d="M 30.480469 113.792969 L 113.703125 113.792969 L 113.703125 139.308594 L 30.480469 139.308594 Z M 30.480469 113.792969 " fill-opacity="1" fill-rule="nonzero"/></g><g clip-path="url(#f7ff69c577)"><path fill="#ffffff" d="M 85.875 85.996094 L 113.816406 85.996094 L 113.816406 115.152344 L 85.875 115.152344 Z M 85.875 85.996094 " fill-opacity="1" fill-rule="nonzero"/></g><g clip-path="url(#69d46255b7)"><path fill="#ffffff" d="M 30.480469 85.996094 L 58.425781 85.996094 L 58.425781 115.152344 L 30.480469 115.152344 Z M 30.480469 85.996094 " fill-opacity="1" fill-rule="nonzero"/></g><g clip-path="url(#e7c2aceb2b)"><path class="anim-part3" fill="#ffffff" d="M 86.722656 41.699219 L 113.449219 41.699219 L 113.449219 73.894531 L 86.722656 73.894531 Z M 86.722656 41.699219 " fill-opacity="1" fill-rule="nonzero"/></g><g clip-path="url(#e32624eb4f)"><path class="anim-part1" fill="#ffffff" d="M 58.886719 4.675781 L 85.007812 4.675781 L 85.007812 57.527344 L 58.886719 57.527344 Z M 58.886719 4.675781 " fill-opacity="1" fill-rule="nonzero"/></g><g clip-path="url(#f1215b9e91)"><path class="anim-part2" fill="#ffffff" d="M 30.480469 4.675781 L 60.855469 4.675781 L 60.855469 30.191406 L 30.480469 30.191406 Z M 30.480469 4.675781 " fill-opacity="1" fill-rule="nonzero"/></g></svg>